<?xml version="1.0" encoding="UTF-8" standalone="no"?>
<!-- Created with Inkscape (http://www.inkscape.org/) -->

<svg
   width="129.51578mm"
   height="19.794399mm"
   viewBox="0 0 129.51578 19.794399"
   version="1.1"
   id="svg1"
   xml:space="preserve"
   xmlns="http://www.w3.org/2000/svg"
   xmlns:svg="http://www.w3.org/2000/svg"><defs
     id="defs1" /><g
     id="g92"
     style="stroke:#000000;stroke-opacity:1"
     transform="translate(-43.142405,-170.55531)"><path
       id="path56"
       style="display:inline;fill:#f77947;fill-opacity:1;stroke:#000000;stroke-width:0.132292;stroke-linejoin:round;stroke-dasharray:none;stroke-opacity:1"
       d="m 58.823757,183.6214 v -1.05833 h -5.009253 c -4.816006,0 -5.015888,-0.0209 -5.181234,-0.54187 -0.344903,-1.08669 0.248115,-1.31021 3.47601,-1.31021 h 3.010311 v -0.79375 -0.79375 h -2.87802 c -3.00125,0 -3.670366,-0.23349 -3.315945,-1.15709 0.186232,-0.48532 2.136494,-0.6147 6.925033,-0.45942 2.859663,0.0927 3.502265,-0.10208 3.502265,-1.06172 0,-0.27323 0.135141,-0.49677 0.300314,-0.49677 0.346517,0 4.661771,3.16602 5.346471,3.92261 0.442672,0.48914 0.409354,0.53863 -0.94028,1.39651 -0.769567,0.48917 -2.182835,1.45702 -3.140595,2.15076 -0.957759,0.69375 -1.820962,1.26136 -1.918229,1.26136 -0.09727,0 -0.176848,-0.47625 -0.176848,-1.05833 z M 43.38973,178.9471 c -0.351796,-0.3518 -0.1646,-1.13422 0.335384,-1.40181 0.281475,-0.15064 1.170255,-0.27389 1.975066,-0.27389 1.174958,0 1.517159,0.10065 1.736661,0.51079 0.467674,0.87386 -0.303868,1.3413 -2.213926,1.3413 -0.911238,0 -1.736171,-0.0794 -1.833185,-0.17639 z" /></g><g
     id="layer1"
     transform="translate(-43.142405,-170.55531)"><g
       id="g91"
       style="fill:#000000;fill-opacity:1;stroke:#000000;stroke-opacity:1"><path
         style="display:inline;fill:#000000;fill-opacity:1;stroke:#000000;stroke-width:0.132292;stroke-linejoin:round;stroke-dasharray:none;stroke-opacity:1"
         d="m 129.99771,189.6699 c -5.7e-4,-0.23859 0.17421,-1.36968 0.38841,-2.51354 0.40591,-2.16762 2.78555,-16.15605 2.78555,-16.37452 0,-0.21043 5.51694,-0.13865 5.64267,0.0734 0.0647,0.10914 -0.4009,3.29406 -1.03469,7.0776 -0.63379,3.78354 -1.15596,6.96846 -1.16037,7.0776 -0.004,0.10914 2.78994,0.19844 6.20968,0.19844 h 6.21771 l -0.006,0.72761 c -0.006,0.64215 -0.15694,1.48596 -0.66814,3.72796 l -0.14117,0.61911 -9.11607,-0.0899 c -8.23451,-0.0812 -9.11617,-0.1319 -9.11711,-0.52374 z"
         id="path51" /><path
         style="display:inline;fill:#000000;fill-opacity:1;stroke:#000000;stroke-width:0.132292;stroke-linejoin:round;stroke-dasharray:none;stroke-opacity:1"
         d="m 108.30794,189.64067 c 0.004,-0.1819 0.30223,-1.9976 0.66293,-4.03489 0.36071,-2.0373 1.02465,-5.96118 1.47543,-8.71974 0.45078,-2.75857 0.92342,-5.28864 1.05031,-5.6224 l 0.23071,-0.60682 h 9.39926 9.39926 l -0.0163,0.59531 c -0.009,0.32742 -0.1638,1.36922 -0.34406,2.31511 l -0.32775,1.71979 -6.63176,0.0706 -6.63177,0.0706 -0.30021,1.49486 c -0.16512,0.82218 -0.30022,1.59408 -0.30022,1.71533 0,0.12125 2.81006,0.22045 6.24457,0.22045 h 6.24456 l -0.18939,1.91823 c -0.30718,3.11142 0.27318,2.87544 -6.95792,2.82912 l -6.26786,-0.0401 -0.19577,1.41671 c -0.10767,0.7792 -0.32679,2.22039 -0.48693,3.20265 l -0.29115,1.78594 h -2.88651 c -2.13661,0 -2.88467,-0.0859 -2.87941,-0.33073 z"
         id="path55" /><path
         id="path49"
         style="display:inline;fill:#000000;fill-opacity:1;stroke:#000000;stroke-width:0.132292;stroke-linejoin:round;stroke-dasharray:none;stroke-opacity:1"
         d="m 86.141985,190.04226 c -1.376627,-0.124 -1.376046,-0.11768 -0.45663,-4.96565 0.358774,-1.89177 1.025246,-5.64224 1.481049,-8.33437 0.455803,-2.69214 0.93275,-5.17065 1.059884,-5.50779 l 0.231152,-0.613 7.871178,0.0838 c 7.613092,0.0811 7.912062,0.10397 9.117972,0.69792 0.74621,0.36753 1.47825,0.98859 1.82329,1.54687 0.51854,0.83902 0.56133,1.17624 0.42563,3.35466 -0.20717,3.32576 -0.99818,5.74518 -2.30589,7.05289 -1.58567,1.58567 -2.86071,1.85128 -8.886856,1.85128 h -5.087447 l -0.301753,1.91823 c -0.480009,3.0514 -0.529578,3.11683 -2.320073,3.06263 -0.839865,-0.0254 -2.033042,-0.0918 -2.651506,-0.1475 z m 14.673345,-9.99491 c 0.72642,-0.50881 1.30826,-3.01711 0.88383,-3.81017 -0.38116,-0.7122 -1.39013,-0.85798 -5.291475,-0.7645 l -3.294195,0.0789 -0.425463,2.4474 -0.425464,2.44739 h 3.991516 c 3.129492,0 4.114561,-0.0862 4.561251,-0.39905 z" /><path
         style="display:inline;fill:#000000;fill-opacity:1;stroke:#000000;stroke-width:0.132292;stroke-linejoin:round;stroke-dasharray:none;stroke-opacity:1"
         d="m 75.843082,189.37609 c 0.07885,-0.32742 0.399211,-2.20266 0.711921,-4.16719 0.31271,-1.96453 0.908173,-5.5364 1.32325,-7.9375 0.415078,-2.40109 0.832461,-4.87164 0.927518,-5.4901 l 0.172831,-1.12448 h 2.88716 c 1.587939,0 2.887161,0.0456 2.887161,0.10138 0,0.0558 -0.535783,3.24068 -1.190629,7.07761 -0.654845,3.83692 -1.387468,8.13708 -1.628051,9.5559 l -0.437423,2.57969 h -2.898548 c -2.871989,0 -2.897234,-0.005 -2.75519,-0.59531 z"
         id="path54" /><path
         id="path47"
         style="display:inline;fill:#000000;fill-opacity:1;stroke:#000000;stroke-width:0.132292;stroke-linejoin:round;stroke-dasharray:none;stroke-opacity:1"
         d="m 51.742576,189.75482 c -0.07337,-0.19208 0.0909,-1.50177 0.365041,-2.91042 l 0.498432,-2.56117 2.875455,-0.0754 2.875455,-0.0754 -0.14825,0.86917 c -0.08154,0.47804 -0.289312,1.78453 -0.461721,2.90332 l -0.313471,2.03417 -2.778775,0.0825 c -2.117495,0.0629 -2.810518,-6.1e-4 -2.912166,-0.26674 z m 14.352994,-0.002 c -0.67678,-0.82928 -2.773896,-4.08399 -2.773896,-4.30506 0,-0.32917 -1.050277,-0.82773 -1.433731,-0.68059 -0.183726,0.0705 -0.4756,0.0407 -0.64861,-0.0662 -0.363441,-0.22462 4.527193,-4.05292 5.922197,-4.63579 1.036782,-0.4332 1.336083,-0.91505 1.580385,-2.54434 0.278622,-1.85817 0.06273,-1.94549 -5.195599,-2.1015 -3.461466,-0.1027 -4.45883,-0.0583 -4.458456,0.19844 3.54e-4,0.24375 -0.734842,0.33073 -2.795474,0.33073 -2.53824,0 -2.783417,-0.0427 -2.65994,-0.46303 0.07481,-0.25466 0.209547,-0.87974 0.29942,-1.38906 0.157532,-0.89275 0.112861,-0.95649 -1.242664,-1.77309 -0.773338,-0.46588 -1.614429,-0.92511 -1.86909,-1.0205 -1.529686,-0.573 0.218077,-0.67849 9.921874,-0.59889 l 10.384896,0.0852 1.309165,0.66146 c 1.982418,1.00162 2.401316,1.74362 2.363989,4.18738 -0.0375,2.45507 -0.616442,4.75832 -1.55103,6.17058 -0.734681,1.11018 -2.823487,2.60662 -3.638442,2.60662 -0.623641,0 -0.46519,0.30269 1.656139,3.16373 0.888942,1.19891 1.550835,2.24527 1.470875,2.32523 -0.07996,0.08 -1.525801,0.17828 -3.212978,0.21849 -2.606017,0.0621 -3.12198,0.006 -3.42903,-0.36978 z" /></g><g
       id="g93"
       style="fill:#f77947;fill-opacity:1;stroke:#000000;stroke-opacity:1"><path
         id="path52"
         style="display:inline;fill:#f77947;fill-opacity:1;stroke:#000000;stroke-width:0.132292;stroke-linejoin:round;stroke-dasharray:none;stroke-opacity:1"
         d="m 155.52896,190.06643 c -1.52726,-0.23243 -3.23575,-0.91103 -3.7582,-1.49273 -0.83316,-0.92766 -1.44899,-2.81289 -1.35432,-4.14598 l 0.0854,-1.20319 -2.77813,-0.1323 -2.77812,-0.13229 0.0269,-0.70775 c 0.0252,-0.66096 -0.0885,-0.73395 -1.71979,-1.10397 -2.23032,-0.50591 -3.27055,-0.90591 -3.09491,-1.19009 0.0764,-0.12358 1.28745,-0.50136 2.69129,-0.83951 2.24984,-0.54193 2.58062,-0.69571 2.79019,-1.29717 0.23066,-0.662 0.30083,-0.68107 2.35438,-0.63979 3.11235,0.0626 3.35643,-0.0489 4.0967,-1.87027 0.75022,-1.84589 1.73139,-2.96271 3.17396,-3.6128 1.68478,-0.75923 5.3875,-1.13053 9.5962,-0.96228 3.26994,0.13072 3.96857,0.23938 5.21857,0.81165 2.65606,1.21599 2.99412,2.76061 1.99629,9.12129 -0.66008,4.20761 -1.37647,6.34754 -2.51877,7.52372 -1.49888,1.54335 -2.76481,1.83476 -8.33917,1.91969 -2.69213,0.041 -5.25198,0.0202 -5.68854,-0.0462 z m 8.96252,-5.10945 c 0.92446,-0.35147 1.16532,-0.92416 1.75655,-4.1764 0.93774,-5.15836 0.91809,-5.18174 -4.24474,-5.05184 -3.07638,0.0774 -3.51845,0.14642 -3.85037,0.60102 -0.5351,0.73289 -0.0888,0.93068 2.13854,0.94763 l 1.85208,0.0141 1.01078,1.45554 c 0.55593,0.80054 0.97265,1.5505 0.92605,1.66657 -0.0466,0.11607 -0.7138,0.76625 -1.48264,1.44484 l -1.39789,1.2338 h -2.37242 c -2.33951,0 -2.37242,0.009 -2.37242,0.64646 0,1.1778 0.85026,1.47021 4.27498,1.47021 1.7044,0 3.39707,-0.11336 3.7615,-0.25192 z" /></g></g></svg>
